<?xml version="1.0" encoding="UTF-8" standalone="no"?>
<svg xmlns:inkscape="http://www.inkscape.org/namespaces/inkscape" xmlns:rdf="http://www.w3.org/1999/02/22-rdf-syntax-ns#" xmlns="http://www.w3.org/2000/svg" sodipodi:docname="9front_logo.svg~" height="171" width="171" version="1.1" xmlns:cc="http://creativecommons.org/ns#" xmlns:dc="http://purl.org/dc/elements/1.1/" inkscape:version="0.48.2 r9819" xmlns:sodipodi="http://sodipodi.sourceforge.net/DTD/sodipodi-0.dtd">
 <title>9front logo</title>
 <metadata>
  <rdf:RDF>
   <cc:Work rdf:about="">
    <dc:format>image/svg+xml</dc:format>
    <dc:type rdf:resource="http://purl.org/dc/dcmitype/StillImage"/>
    <dc:title>9front logo</dc:title>
    <dc:date>2012-09-16</dc:date>
    <dc:creator>
     <cc:Agent>
      <dc:title>Dmitrij D. Czarkoff</dc:title>
     </cc:Agent>
    </dc:creator>
    <dc:rights>
     <cc:Agent>
      <dc:title/>
     </cc:Agent>
    </dc:rights>
    <dc:publisher>
     <cc:Agent>
      <dc:title>Wikimedia Commons</dc:title>
     </cc:Agent>
    </dc:publisher>
    <dc:source>http://code.google.com/p/plan9front</dc:source>
    <dc:language>None</dc:language>
    <dc:description>Logo of 9front operating system</dc:description>
    <cc:license rdf:resource="http://creativecommons.org/licenses/publicdomain/"/>
   </cc:Work>
   <cc:License rdf:about="http://creativecommons.org/licenses/publicdomain/">
    <cc:permits rdf:resource="http://creativecommons.org/ns#Reproduction"/>
    <cc:permits rdf:resource="http://creativecommons.org/ns#Distribution"/>
    <cc:permits rdf:resource="http://creativecommons.org/ns#DerivativeWorks"/>
   </cc:License>
  </rdf:RDF>
 </metadata>
 <sodipodi:namedview bordercolor="#666666" inkscape:pageshadow="2" guidetolerance="10" pagecolor="#ffffff" gridtolerance="10" inkscape:window-maximized="1" inkscape:zoom="1.380117" objecttolerance="10" borderopacity="1" inkscape:current-layer="svg3119" inkscape:cx="-56.516953" inkscape:cy="85.500006" inkscape:window-y="27" inkscape:window-x="0" inkscape:window-width="1366" showgrid="false" inkscape:pageopacity="0" inkscape:window-height="681"/>
 <g fill="#003153" transform="translate(-.57812 -10.868)">
  <path sodipodi:rx="78.254234" sodipodi:ry="78.616524" sodipodi:type="arc" d="m163.03 85.138c0 43.419-35.036 78.617-78.254 78.617-43.219 0-78.254-35.198-78.254-78.617s35.036-78.617 78.254-78.617c43.219 0 78.254 35.198 78.254 78.617z" transform="matrix(.98415 0 0 .97962 2.6464 12.966)" stroke="#003153" sodipodi:cy="85.137711" sodipodi:cx="84.775421" stroke-width="17.285" fill="#fff"/>
  <path style="" d="m53.539 145.85v-19.406c4.3125 2.0156 8.4375 3.5391 12.375 4.5703 3.9375 0.98439 7.8281 1.4766 11.672 1.4766 8.0625 0.00001 14.344-2.2266 18.844-6.6797 4.4999-4.5 7.1484-11.156 7.9453-19.969-3.1876 2.3438-6.586 4.1016-10.195 5.2734-3.6094 1.1719-7.5235 1.7578-11.742 1.7578-10.734 0.00003-19.406-3.1172-26.016-9.3516-6.5625-6.2812-9.8438-14.531-9.8438-24.75-0.000007-11.297 3.6562-20.344 10.969-27.141 7.3593-6.7968 17.203-10.195 29.531-10.195 13.687 0.000107 24.281 4.6173 31.781 13.852 7.4999 9.2345 11.25 22.289 11.25 39.164-0.00009 17.344-4.3829 30.984-13.148 40.922-8.7657 9.8906-20.789 14.836-36.07 14.836-4.9219-0.00001-9.6328-0.37501-14.133-1.125-4.5-0.70313-8.9063-1.7812-13.219-3.2344m33.399-50.556c4.7343 0.000053 8.2968-1.5234 10.688-4.5703 2.3906-3.0937 3.5859-7.7109 3.5859-13.852-0.00006-6.0937-1.1954-10.687-3.5859-13.781-2.3907-3.0937-5.9532-4.6405-10.688-4.6406-4.7344 0.00009-8.2969 1.547-10.688 4.6406-2.3907 3.0938-3.586 7.6876-3.5859 13.781-0.000033 6.1407 1.1953 10.758 3.5859 13.852 2.3906 3.0469 5.9531 4.5704 10.688 4.5703"/>
 </g>
</svg>
